<svg xmlns="http://www.w3.org/2000/svg" width="256" height="256" viewBox="0 0 100 100"><rect width="100" height="100" rx="50" fill="#938bde"></rect><path fill="#fff" d="M73.56 42.15L73.56 42.15L62.36 42.15Q62.06 39.98 61.11 38.28Q60.16 36.58 58.68 35.38Q57.20 34.17 55.27 33.53Q53.34 32.89 51.09 32.89L51.09 32.89Q47.02 32.89 44.00 34.90Q40.99 36.91 39.33 40.73Q37.66 44.55 37.66 50L37.66 50Q37.66 55.60 39.34 59.41Q41.01 63.22 44.03 65.16Q47.05 67.11 51.01 67.11L51.01 67.11Q53.23 67.11 55.14 66.52Q57.04 65.93 58.53 64.79Q60.01 63.65 60.99 62.02Q61.98 60.38 62.36 58.28L62.36 58.28L73.56 58.34Q73.13 61.94 71.40 65.28Q69.67 68.61 66.77 71.23Q63.87 73.86 59.87 75.38Q55.87 76.90 50.83 76.90L50.83 76.90Q43.83 76.90 38.32 73.73Q32.81 70.56 29.62 64.55Q26.44 58.54 26.44 50L26.44 50Q26.44 41.43 29.66 35.43Q32.88 29.42 38.40 26.26Q43.93 23.10 50.83 23.10L50.83 23.10Q55.38 23.10 59.28 24.38Q63.18 25.66 66.20 28.10Q69.21 30.54 71.12 34.07Q73.02 37.60 73.56 42.15Z"></path></svg>